<mxfile host="app.diagrams.net" modified="2024-04-27T10:11:28.948Z" agent="Mozilla/5.0 (Windows NT 10.0; Win64; x64) AppleWebKit/537.36 (KHTML, like Gecko) Chrome/124.0.0.0 Safari/537.36" etag="NEttmndvVSf11e3C5nYY" version="24.0.7" type="github">
  <diagram name="페이지-1" id="GFS9mQSJCfrbpxKKKmGG">
    <mxGraphModel dx="1147" dy="726" grid="1" gridSize="10" guides="1" tooltips="1" connect="1" arrows="1" fold="1" page="1" pageScale="1" pageWidth="827" pageHeight="1169" math="0" shadow="0">
      <root>
        <mxCell id="0" />
        <mxCell id="1" parent="0" />
        <mxCell id="SVd9iPJFW6OR3zD0qHVr-1" value="고객" style="whiteSpace=wrap;html=1;align=center;" vertex="1" parent="1">
          <mxGeometry x="364" y="320" width="86" height="40" as="geometry" />
        </mxCell>
        <mxCell id="SVd9iPJFW6OR3zD0qHVr-2" value="고객명" style="ellipse;whiteSpace=wrap;html=1;align=center;" vertex="1" parent="1">
          <mxGeometry x="180" y="220" width="100" height="40" as="geometry" />
        </mxCell>
        <mxCell id="SVd9iPJFW6OR3zD0qHVr-3" value="" style="endArrow=none;html=1;rounded=0;entryX=0.5;entryY=0;entryDx=0;entryDy=0;exitX=0.5;exitY=1;exitDx=0;exitDy=0;" edge="1" parent="1" source="SVd9iPJFW6OR3zD0qHVr-2" target="SVd9iPJFW6OR3zD0qHVr-1">
          <mxGeometry relative="1" as="geometry">
            <mxPoint x="330" y="380" as="sourcePoint" />
            <mxPoint x="490" y="380" as="targetPoint" />
          </mxGeometry>
        </mxCell>
        <mxCell id="SVd9iPJFW6OR3zD0qHVr-4" value="전화번호" style="ellipse;whiteSpace=wrap;html=1;align=center;fontStyle=4;" vertex="1" parent="1">
          <mxGeometry x="290" y="200" width="100" height="40" as="geometry" />
        </mxCell>
        <mxCell id="SVd9iPJFW6OR3zD0qHVr-5" value="" style="endArrow=none;html=1;rounded=0;exitX=0.5;exitY=1;exitDx=0;exitDy=0;" edge="1" parent="1" source="SVd9iPJFW6OR3zD0qHVr-4">
          <mxGeometry relative="1" as="geometry">
            <mxPoint x="410" y="260" as="sourcePoint" />
            <mxPoint x="410" y="320" as="targetPoint" />
          </mxGeometry>
        </mxCell>
        <mxCell id="SVd9iPJFW6OR3zD0qHVr-6" value="이메일" style="ellipse;whiteSpace=wrap;html=1;align=center;fontStyle=4;" vertex="1" parent="1">
          <mxGeometry x="420" y="210" width="100" height="40" as="geometry" />
        </mxCell>
        <mxCell id="SVd9iPJFW6OR3zD0qHVr-7" value="" style="endArrow=none;html=1;rounded=0;exitX=0;exitY=1;exitDx=0;exitDy=0;entryX=0.5;entryY=0;entryDx=0;entryDy=0;" edge="1" parent="1" source="SVd9iPJFW6OR3zD0qHVr-6" target="SVd9iPJFW6OR3zD0qHVr-1">
          <mxGeometry relative="1" as="geometry">
            <mxPoint x="430" y="260" as="sourcePoint" />
            <mxPoint x="420" y="330" as="targetPoint" />
          </mxGeometry>
        </mxCell>
        <mxCell id="SVd9iPJFW6OR3zD0qHVr-8" value="고객코드" style="ellipse;whiteSpace=wrap;html=1;align=center;fontStyle=4;" vertex="1" parent="1">
          <mxGeometry x="520" y="270" width="100" height="40" as="geometry" />
        </mxCell>
        <mxCell id="SVd9iPJFW6OR3zD0qHVr-9" value="" style="endArrow=none;html=1;rounded=0;exitX=0;exitY=0.5;exitDx=0;exitDy=0;" edge="1" parent="1" source="SVd9iPJFW6OR3zD0qHVr-8">
          <mxGeometry relative="1" as="geometry">
            <mxPoint x="495" y="294" as="sourcePoint" />
            <mxPoint x="407" y="320" as="targetPoint" />
          </mxGeometry>
        </mxCell>
        <mxCell id="SVd9iPJFW6OR3zD0qHVr-12" value="주소" style="ellipse;whiteSpace=wrap;html=1;align=center;" vertex="1" parent="1">
          <mxGeometry x="180" y="310" width="100" height="40" as="geometry" />
        </mxCell>
        <mxCell id="SVd9iPJFW6OR3zD0qHVr-13" value="" style="endArrow=none;html=1;rounded=0;exitX=1;exitY=0.5;exitDx=0;exitDy=0;entryX=0;entryY=0.5;entryDx=0;entryDy=0;" edge="1" parent="1" source="SVd9iPJFW6OR3zD0qHVr-12" target="SVd9iPJFW6OR3zD0qHVr-1">
          <mxGeometry relative="1" as="geometry">
            <mxPoint x="330" y="390" as="sourcePoint" />
            <mxPoint x="360" y="340" as="targetPoint" />
          </mxGeometry>
        </mxCell>
        <mxCell id="SVd9iPJFW6OR3zD0qHVr-14" value="기본주소" style="ellipse;whiteSpace=wrap;html=1;align=center;" vertex="1" parent="1">
          <mxGeometry x="70" y="270" width="100" height="40" as="geometry" />
        </mxCell>
        <mxCell id="SVd9iPJFW6OR3zD0qHVr-15" value="상세주소" style="ellipse;whiteSpace=wrap;html=1;align=center;" vertex="1" parent="1">
          <mxGeometry x="70" y="350" width="100" height="40" as="geometry" />
        </mxCell>
        <mxCell id="SVd9iPJFW6OR3zD0qHVr-16" value="" style="endArrow=none;html=1;rounded=0;exitX=1;exitY=1;exitDx=0;exitDy=0;entryX=0;entryY=0.5;entryDx=0;entryDy=0;" edge="1" parent="1" source="SVd9iPJFW6OR3zD0qHVr-14" target="SVd9iPJFW6OR3zD0qHVr-12">
          <mxGeometry relative="1" as="geometry">
            <mxPoint x="160" y="310" as="sourcePoint" />
            <mxPoint x="320" y="310" as="targetPoint" />
          </mxGeometry>
        </mxCell>
        <mxCell id="SVd9iPJFW6OR3zD0qHVr-17" value="" style="endArrow=none;html=1;rounded=0;exitX=0.806;exitY=0.125;exitDx=0;exitDy=0;exitPerimeter=0;" edge="1" parent="1" source="SVd9iPJFW6OR3zD0qHVr-15">
          <mxGeometry relative="1" as="geometry">
            <mxPoint x="165" y="314" as="sourcePoint" />
            <mxPoint x="180" y="330" as="targetPoint" />
          </mxGeometry>
        </mxCell>
        <mxCell id="SVd9iPJFW6OR3zD0qHVr-18" value="가입일" style="ellipse;whiteSpace=wrap;html=1;align=center;" vertex="1" parent="1">
          <mxGeometry x="180" y="380" width="100" height="40" as="geometry" />
        </mxCell>
        <mxCell id="SVd9iPJFW6OR3zD0qHVr-19" value="" style="endArrow=none;html=1;rounded=0;exitX=1;exitY=0;exitDx=0;exitDy=0;entryX=0;entryY=0.5;entryDx=0;entryDy=0;" edge="1" parent="1" source="SVd9iPJFW6OR3zD0qHVr-18" target="SVd9iPJFW6OR3zD0qHVr-1">
          <mxGeometry relative="1" as="geometry">
            <mxPoint x="290" y="340" as="sourcePoint" />
            <mxPoint x="374" y="350" as="targetPoint" />
          </mxGeometry>
        </mxCell>
        <mxCell id="SVd9iPJFW6OR3zD0qHVr-20" value="지역" style="ellipse;whiteSpace=wrap;html=1;align=center;" vertex="1" parent="1">
          <mxGeometry x="300" y="430" width="100" height="40" as="geometry" />
        </mxCell>
        <mxCell id="SVd9iPJFW6OR3zD0qHVr-21" value="" style="endArrow=none;html=1;rounded=0;exitX=0.5;exitY=0;exitDx=0;exitDy=0;entryX=0.365;entryY=1.035;entryDx=0;entryDy=0;entryPerimeter=0;" edge="1" parent="1" source="SVd9iPJFW6OR3zD0qHVr-20" target="SVd9iPJFW6OR3zD0qHVr-1">
          <mxGeometry relative="1" as="geometry">
            <mxPoint x="325" y="396" as="sourcePoint" />
            <mxPoint x="374" y="350" as="targetPoint" />
          </mxGeometry>
        </mxCell>
        <mxCell id="SVd9iPJFW6OR3zD0qHVr-22" value="지역" style="whiteSpace=wrap;html=1;align=center;" vertex="1" parent="1">
          <mxGeometry x="300" y="510" width="100" height="40" as="geometry" />
        </mxCell>
        <mxCell id="SVd9iPJFW6OR3zD0qHVr-23" value="지역명" style="ellipse;whiteSpace=wrap;html=1;align=center;" vertex="1" parent="1">
          <mxGeometry x="150" y="480" width="100" height="40" as="geometry" />
        </mxCell>
        <mxCell id="SVd9iPJFW6OR3zD0qHVr-24" value="" style="endArrow=none;html=1;rounded=0;exitX=1;exitY=0.5;exitDx=0;exitDy=0;entryX=0;entryY=0.5;entryDx=0;entryDy=0;" edge="1" parent="1" source="SVd9iPJFW6OR3zD0qHVr-23" target="SVd9iPJFW6OR3zD0qHVr-22">
          <mxGeometry relative="1" as="geometry">
            <mxPoint x="280" y="528.6" as="sourcePoint" />
            <mxPoint x="325" y="459.6" as="targetPoint" />
          </mxGeometry>
        </mxCell>
        <mxCell id="SVd9iPJFW6OR3zD0qHVr-25" value="지역코드" style="ellipse;whiteSpace=wrap;html=1;align=center;" vertex="1" parent="1">
          <mxGeometry x="150" y="535" width="100" height="40" as="geometry" />
        </mxCell>
        <mxCell id="SVd9iPJFW6OR3zD0qHVr-26" value="" style="endArrow=none;html=1;rounded=0;exitX=0.994;exitY=0.385;exitDx=0;exitDy=0;entryX=0;entryY=0.5;entryDx=0;entryDy=0;exitPerimeter=0;" edge="1" parent="1" source="SVd9iPJFW6OR3zD0qHVr-25" target="SVd9iPJFW6OR3zD0qHVr-22">
          <mxGeometry relative="1" as="geometry">
            <mxPoint x="250" y="560" as="sourcePoint" />
            <mxPoint x="300" y="580" as="targetPoint" />
          </mxGeometry>
        </mxCell>
        <mxCell id="SVd9iPJFW6OR3zD0qHVr-27" value="제품" style="whiteSpace=wrap;html=1;align=center;" vertex="1" parent="1">
          <mxGeometry x="540" y="520" width="100" height="40" as="geometry" />
        </mxCell>
        <mxCell id="SVd9iPJFW6OR3zD0qHVr-28" value="제풐코드" style="ellipse;whiteSpace=wrap;html=1;align=center;" vertex="1" parent="1">
          <mxGeometry x="460" y="410" width="100" height="40" as="geometry" />
        </mxCell>
        <mxCell id="SVd9iPJFW6OR3zD0qHVr-29" value="" style="endArrow=none;html=1;rounded=0;exitX=1;exitY=1;exitDx=0;exitDy=0;entryX=0.398;entryY=-0.05;entryDx=0;entryDy=0;entryPerimeter=0;" edge="1" source="SVd9iPJFW6OR3zD0qHVr-28" target="SVd9iPJFW6OR3zD0qHVr-27" parent="1">
          <mxGeometry relative="1" as="geometry">
            <mxPoint x="580" y="538.6" as="sourcePoint" />
            <mxPoint x="640" y="510" as="targetPoint" />
          </mxGeometry>
        </mxCell>
        <mxCell id="SVd9iPJFW6OR3zD0qHVr-30" value="제품명" style="ellipse;whiteSpace=wrap;html=1;align=center;" vertex="1" parent="1">
          <mxGeometry x="570" y="400" width="100" height="40" as="geometry" />
        </mxCell>
        <mxCell id="SVd9iPJFW6OR3zD0qHVr-31" value="" style="endArrow=none;html=1;rounded=0;exitX=0.5;exitY=1;exitDx=0;exitDy=0;entryX=0.406;entryY=0.06;entryDx=0;entryDy=0;entryPerimeter=0;" edge="1" source="SVd9iPJFW6OR3zD0qHVr-30" target="SVd9iPJFW6OR3zD0qHVr-27" parent="1">
          <mxGeometry relative="1" as="geometry">
            <mxPoint x="550" y="570" as="sourcePoint" />
            <mxPoint x="600" y="590" as="targetPoint" />
          </mxGeometry>
        </mxCell>
        <mxCell id="SVd9iPJFW6OR3zD0qHVr-32" value="제품구분" style="ellipse;whiteSpace=wrap;html=1;align=center;" vertex="1" parent="1">
          <mxGeometry x="660" y="430" width="100" height="40" as="geometry" />
        </mxCell>
        <mxCell id="SVd9iPJFW6OR3zD0qHVr-33" value="제품색상" style="ellipse;shape=doubleEllipse;margin=3;whiteSpace=wrap;html=1;align=center;" vertex="1" parent="1">
          <mxGeometry x="680" y="480" width="100" height="40" as="geometry" />
        </mxCell>
        <mxCell id="SVd9iPJFW6OR3zD0qHVr-34" value="가격" style="ellipse;whiteSpace=wrap;html=1;align=center;" vertex="1" parent="1">
          <mxGeometry x="690" y="535" width="100" height="40" as="geometry" />
        </mxCell>
        <mxCell id="SVd9iPJFW6OR3zD0qHVr-35" value="" style="endArrow=none;html=1;rounded=0;exitX=0;exitY=0.5;exitDx=0;exitDy=0;entryX=0.454;entryY=-0.05;entryDx=0;entryDy=0;entryPerimeter=0;" edge="1" parent="1" source="SVd9iPJFW6OR3zD0qHVr-32" target="SVd9iPJFW6OR3zD0qHVr-27">
          <mxGeometry relative="1" as="geometry">
            <mxPoint x="634.7" y="437.6" as="sourcePoint" />
            <mxPoint x="605.7" y="519.6" as="targetPoint" />
          </mxGeometry>
        </mxCell>
        <mxCell id="SVd9iPJFW6OR3zD0qHVr-36" value="" style="endArrow=none;html=1;rounded=0;exitX=0;exitY=1;exitDx=0;exitDy=0;entryX=1;entryY=0.5;entryDx=0;entryDy=0;" edge="1" parent="1" source="SVd9iPJFW6OR3zD0qHVr-33" target="SVd9iPJFW6OR3zD0qHVr-27">
          <mxGeometry relative="1" as="geometry">
            <mxPoint x="714.6" y="496" as="sourcePoint" />
            <mxPoint x="649.6" y="564" as="targetPoint" />
          </mxGeometry>
        </mxCell>
        <mxCell id="SVd9iPJFW6OR3zD0qHVr-37" value="" style="endArrow=none;html=1;rounded=0;exitX=0;exitY=0.5;exitDx=0;exitDy=0;entryX=1;entryY=0.5;entryDx=0;entryDy=0;" edge="1" parent="1" source="SVd9iPJFW6OR3zD0qHVr-34" target="SVd9iPJFW6OR3zD0qHVr-27">
          <mxGeometry relative="1" as="geometry">
            <mxPoint x="695" y="526.9" as="sourcePoint" />
            <mxPoint x="650" y="552.9" as="targetPoint" />
          </mxGeometry>
        </mxCell>
        <mxCell id="SVd9iPJFW6OR3zD0qHVr-38" value="고객" style="whiteSpace=wrap;html=1;align=center;" vertex="1" parent="1">
          <mxGeometry x="540" y="600" width="100" height="40" as="geometry" />
        </mxCell>
        <mxCell id="SVd9iPJFW6OR3zD0qHVr-39" value="" style="endArrow=none;html=1;rounded=0;exitX=0.5;exitY=1;exitDx=0;exitDy=0;" edge="1" parent="1" source="SVd9iPJFW6OR3zD0qHVr-27" target="SVd9iPJFW6OR3zD0qHVr-38">
          <mxGeometry relative="1" as="geometry">
            <mxPoint x="585.2" y="582.9" as="sourcePoint" />
            <mxPoint x="620.2" y="656.9" as="targetPoint" />
          </mxGeometry>
        </mxCell>
      </root>
    </mxGraphModel>
  </diagram>
</mxfile>
